<svg width="20" height="20" viewBox="0 0 20 20" fill="none" xmlns="http://www.w3.org/2000/svg">
<mask id="mask0_28_636" style="mask-type:alpha" maskUnits="userSpaceOnUse" x="0" y="0" width="20" height="20">
<path d="M20 10C20 15.5228 15.5228 20 10 20C10.5395 8.36223 0 15.5228 0 10C0 4.47716 4.47715 0 10 0C10 11.5703 20 4.47716 20 10Z" fill="#D9D9D9"/>
</mask>
<g mask="url(#mask0_28_636)">
<circle cx="4.90389" cy="5.42388" r="1.74374" fill="#F3E6E6"/>
<path d="M4.24852 7.06518C2.42364 9.22323 2.53784 11.4102 3.38147 14.1076C4.95936 19.1526 15.5427 19.2118 16.9171 14.1076C17.6631 11.3374 16.8208 8.65478 15.4817 7.06518C14.1425 5.47558 11.9888 4.28096 9.73985 4.35805C7.62574 4.43052 5.61441 5.44992 4.24852 7.06518Z" fill="url(#paint0_linear_28_636)"/>
<path d="M25.1015 22.2947C25.3101 21.9313 25.2804 21.5134 25.1964 21.0939C25.1366 20.7951 24.8809 20.4839 24.7167 20.2372C24.5984 20.0593 24.4444 19.8694 24.2634 19.7578C23.9092 19.5393 23.4463 19.4589 23.0364 19.3908L21.6904 19.167C20.2991 18.9357 19.0716 18.329 17.9175 17.5352C17.464 17.2232 17.0714 16.8539 17.1289 16.2666L17.129 16.2663C17.1717 15.8295 17.2015 15.5259 17.6499 15.3533C18.06 15.1954 18.5885 15.2647 18.9546 15.0101C19.1134 14.8996 19.1071 14.6357 19.0652 14.4718C18.9933 14.1907 18.8112 14.0896 18.548 13.9891C18.2558 13.8775 18.037 13.7178 17.7132 13.8111C17.5571 13.856 17.3773 13.832 17.2375 13.9292C17.1016 14.0238 16.9953 14.0459 16.8375 14.0964C16.045 14.3502 15.3104 14.7969 14.4552 14.7279C13.8932 14.6826 13.3702 14.6286 12.8467 14.3951C12.5794 14.2759 12.3436 14.0598 12.1497 13.8449C11.9383 13.6105 11.7035 13.4089 11.5547 13.1216C11.3504 12.7273 11.4016 12.4276 11.4803 12.024C11.5208 11.8166 11.6882 11.6565 11.6365 11.4272C11.5398 10.9989 10.9728 10.3832 10.499 10.4873C10.3307 10.5243 10.1871 10.5006 10.022 10.5733C9.95072 10.6047 9.87276 10.5915 9.80268 10.6233C9.71467 10.6632 9.64159 10.7316 9.55223 10.7697C9.19499 10.9219 8.86077 11.126 8.48334 11.227C8.03547 11.3469 7.57535 11.4501 7.11928 11.3266C6.41326 11.1355 5.71849 10.7413 5.17341 10.2538C4.16832 9.355 3.65904 7.66454 2.10591 7.5626C1.68753 7.53514 1.17691 7.57762 0.83879 7.86398C0.447071 8.19574 0.140168 8.68464 0.0257885 9.18195C-0.149774 9.94528 0.192812 10.5828 0.724452 11.1195C1.46799 11.8702 2.57248 12.4725 3.58337 12.7627C3.94322 12.8661 4.29372 12.9652 4.65565 13.056C4.97214 13.1353 5.31949 13.2502 5.60566 13.4061C5.90312 13.5683 6.20085 13.7583 6.44854 13.9911C6.58711 14.1213 6.74076 14.2562 6.76409 14.4456C6.84314 15.0877 5.87246 15.1178 5.49172 14.893C4.87903 14.5312 4.33686 14.1012 3.67456 13.8178C3.23389 13.6292 2.38798 13.4714 2.19291 14.0927C1.89842 15.0307 2.87505 16.0081 3.56752 16.4352C4.57248 17.0552 5.5872 17.7019 6.78248 17.8793L6.78577 17.8798C7.09341 17.9255 7.40316 17.9715 7.71599 17.9546C7.98288 17.9401 8.24116 17.8924 8.50934 17.8904C8.74098 17.8887 8.98393 17.8242 9.21228 17.8812C9.477 17.9473 9.74739 18.0012 10.0016 18.0985C10.5199 18.297 10.9133 18.5056 11.3009 18.9097C11.8577 19.4901 12.3434 20.157 12.8489 20.7839C13.3025 21.3465 13.6667 21.976 14.1064 22.5488C14.5759 23.1603 15.0618 23.708 15.6445 24.21C16.0686 24.5752 16.6075 24.7913 17.1348 24.956C17.671 25.1234 18.1983 25.2958 18.7708 25.2937C19.4147 25.2914 19.9683 24.9503 20.6069 24.9101C21.4993 24.8539 22.2316 25.3057 22.9623 25.7566L22.9886 25.7728C23.4264 26.0428 23.8621 26.4965 24.4018 26.5482C24.8831 26.5944 25.2583 26.3931 25.6556 26.1424C25.8504 26.0195 26.0854 25.9384 26.1447 25.6932C26.1811 25.5427 26.1627 25.375 26.1139 25.2314C25.8673 24.5044 25.2154 24.114 24.6047 23.7372C24.2865 23.5409 23.9521 23.3568 23.6236 23.1777C23.3506 23.0289 22.9943 23.0313 22.7424 22.8459C22.4158 22.6057 22.4398 22.3855 22.382 22.0172C22.3579 21.863 22.3665 21.6986 22.4489 21.5651C22.4722 21.5273 22.6137 21.4068 22.6543 21.4078C22.8875 21.4134 22.9943 21.6884 23.0757 21.8626C23.3588 22.4688 23.9637 22.7754 24.6133 22.7991C24.7312 22.8034 24.9669 22.6261 25.0342 22.5292C25.1018 22.4319 25.097 22.3727 25.1015 22.2947Z" fill="url(#paint1_linear_28_636)"/>
<path d="M-3.74078 24.4302C-3.67808 23.9723 -3.70623 23.4551 -3.52314 23.0199C-3.36862 22.6526 -3.03961 22.2781 -2.77406 21.9857C-2.41031 21.5853 -2.01722 21.2241 -1.5798 20.9055C-1.2237 20.646 -0.787509 20.691 -0.379084 20.5748C0.223338 20.4033 0.842367 20.3878 1.43495 20.1567C1.81105 20.01 2.202 19.9158 2.56376 19.7299C3.02657 19.4921 3.46071 19.1868 3.9017 18.9117C4.32873 18.6453 4.75256 18.3371 5.12015 17.9926C5.49879 17.6378 5.77876 17.2032 6.08347 16.7875C6.23946 16.5747 6.33034 16.2826 6.56056 16.1366C6.67533 16.0638 6.7835 15.9718 6.87418 15.8695C7.10018 15.6145 7.40577 15.6131 7.72913 15.6556C7.96429 15.6866 8.21365 15.981 8.36222 16.1419C8.55898 16.355 9.035 16.3717 9.30047 16.327C10.5748 16.1128 11.2136 14.9071 12.0865 14.1065C12.321 13.8914 12.7716 13.6793 13.099 13.708C13.2172 13.7183 13.3255 13.7747 13.4356 13.8101C13.5816 13.857 13.7662 13.8296 13.9183 13.8326C14.4787 13.8434 15.0886 13.2855 15.4742 12.9429C16.0501 12.4313 16.6334 11.6815 16.6433 10.8747C16.6506 10.2728 16.4571 9.54044 16.7499 8.98939C16.9925 8.53263 17.4464 8.10726 17.961 7.97258C18.4049 7.85639 18.7739 8.06977 19.0844 8.36018C19.4467 8.69904 19.7151 9.12646 19.8639 9.6008C19.9996 10.0335 20.0118 10.3818 19.8313 10.7965C19.7213 11.0493 19.6908 11.2869 19.5461 11.5314C19.4122 11.7579 19.1971 11.9795 18.986 12.1348C18.8052 12.268 18.6088 12.3849 18.4307 12.5194C18.2828 12.631 18.1306 12.6646 17.9687 12.7478C17.8267 12.8207 17.678 12.8565 17.5366 12.9292C17.3962 13.0014 17.2867 13.164 17.1944 13.2899L17.1897 13.2963C16.9761 13.5877 16.7092 13.9518 16.7055 14.3301C16.7023 14.6503 17.037 14.5024 17.225 14.4374C17.9459 14.1882 18.5661 13.5875 19.1611 13.1292C19.6253 12.7717 20.2454 12.4944 20.8408 12.6516C21.0627 12.7102 21.2292 12.8446 21.4015 12.9925C21.6609 13.2152 21.6769 13.5393 21.7436 13.8514C21.8858 14.5163 21.5529 15.2611 21.2381 15.8334C20.8654 16.5112 20.3146 17.1016 19.8781 17.7406C19.494 18.3028 19.0357 18.711 18.4432 19.0369C17.9575 19.304 17.5563 19.7298 17.081 20.0186C16.8187 20.178 16.5681 20.3656 16.2964 20.5052C15.9229 20.6971 15.554 20.8932 15.1746 21.0816C14.505 21.4142 13.8348 21.7321 13.1971 22.1293C12.8676 22.3345 12.5363 22.5485 12.1958 22.734C11.8911 22.8999 11.6029 23.1297 11.2815 23.2623C10.6126 23.5385 9.97302 24.0089 9.41873 24.4675C8.70828 25.0552 7.89121 25.3773 7.10767 25.8443C6.58919 26.1533 6.10057 26.5195 5.62517 26.8901C5.31546 27.1316 4.97376 27.3737 4.5822 27.4576C4.15045 27.5501 3.71861 27.5859 3.28987 27.6933C2.82343 27.8101 2.3635 27.9555 1.89122 28.0467C1.69681 28.0843 1.45141 28.0456 1.25435 28.0313C1.02291 28.0146 0.800972 28.0861 0.567737 28.0595C0.278845 28.0266 -0.0635904 27.913 -0.248794 27.6901C-0.413933 27.4913 -0.544074 27.2558 -0.662338 27.0256C-0.788271 26.7805 -0.752209 26.4716 -0.681099 26.217C-0.623005 26.0089 -0.685038 25.7853 -0.562374 25.5969C-0.526419 25.5416 -0.479667 25.35 -0.412754 25.3397C-0.314783 25.3246 -0.24059 25.2547 -0.14769 25.2237C0.0744055 25.1497 0.304612 25.1359 0.53142 25.0845C0.983208 24.982 1.29819 24.6444 1.60742 24.34C1.77825 24.1718 2.26687 23.4807 1.96928 23.241C1.67929 23.0075 1.3542 23.2132 1.10925 23.4012C0.964738 23.512 0.924745 23.7235 0.801988 23.8386C0.644821 23.9858 0.465169 24.173 0.327703 24.337C0.0775892 24.6354 -0.360142 24.8152 -0.720272 24.9386C-0.939471 25.0137 -1.17381 25.0698 -1.40555 25.0878C-1.64151 25.1062 -1.87177 25.1866 -2.10834 25.1942C-2.26631 25.1993 -2.38137 25.2469 -2.53011 25.1675C-2.6236 25.1175 -2.72117 25.0333 -2.79873 24.9606C-2.9343 24.8335 -3.0802 24.7254 -3.23118 24.6147C-3.30052 24.5639 -3.51877 24.3643 -3.60229 24.3838C-3.63345 24.3911 -3.60124 24.4507 -3.60475 24.4739C-3.60622 24.4837 -3.61398 24.487 -3.63534 24.4775C-3.63534 24.4775 -3.63534 24.4774 -3.63535 24.4774L-3.74078 24.4302Z" fill="url(#paint2_linear_28_636)"/>
</g>
<defs>
<linearGradient id="paint0_linear_28_636" x1="9.99501" y1="4.35452" x2="9.99501" y2="17.9135" gradientUnits="userSpaceOnUse">
<stop stop-color="#FAFFC5"/>
<stop offset="1" stop-color="#EF905A"/>
</linearGradient>
<linearGradient id="paint1_linear_28_636" x1="16.1062" y1="12.445" x2="10.7044" y2="21.2019" gradientUnits="userSpaceOnUse">
<stop stop-color="#8DCBB8"/>
<stop offset="1" stop-color="#8DCBB8" stop-opacity="0"/>
</linearGradient>
<linearGradient id="paint2_linear_28_636" x1="6.45537" y1="13.8436" x2="11.624" y2="23.9026" gradientUnits="userSpaceOnUse">
<stop stop-color="#5C3D74"/>
<stop offset="1" stop-color="#D9D9D9" stop-opacity="0"/>
</linearGradient>
</defs>
</svg>
